<?xml version="1.0" standalone="no"?>
<!DOCTYPE svg PUBLIC "-//W3C//DTD SVG 20010904//EN"
 "http://www.w3.org/TR/2001/REC-SVG-20010904/DTD/svg10.dtd">
<svg version="1.0" xmlns="http://www.w3.org/2000/svg"
 width="272.000000pt" height="428.000000pt" viewBox="0 0 272.000000 428.000000"
 preserveAspectRatio="xMidYMid meet">

<g transform="translate(0.000000,428.000000) scale(0.100000,-0.100000)"
fill="#000000" stroke="none">
<path d="M1262 3388 c-185 -189 -394 -469 -501 -668 -89 -168 -95 -341 -15
-478 15 -26 91 -112 170 -192 79 -80 158 -171 178 -204 39 -65 69 -179 64
-245 l-3 -42 -57 51 c-71 63 -117 151 -125 238 -5 57 -8 63 -63 117 l-58 57
-7 -61 c-13 -110 14 -244 67 -330 35 -56 107 -130 168 -170 75 -50 171 -95
180 -84 18 18 31 222 20 303 -23 171 -66 245 -251 435 -170 175 -184 193 -204
271 -22 85 -7 165 54 279 94 178 253 398 404 560 l75 80 37 -35 c158 -149 439
-547 489 -690 29 -84 27 -184 -5 -248 l-26 -52 26 -66 25 -65 28 33 c16 18 43
62 61 98 58 116 48 278 -25 424 -69 137 -209 340 -350 510 -81 96 -244 266
-256 266 -5 0 -50 -42 -100 -92z"/>
<path d="M1283 2757 c-129 -139 -250 -301 -314 -423 l-24 -44 49 -47 c26 -27
50 -43 52 -37 29 74 186 304 279 408 l34 39 48 -53 c139 -155 257 -348 314
-515 20 -57 24 -90 24 -180 0 -98 -3 -116 -27 -167 -26 -57 -104 -150 -142
-170 -18 -10 -19 -7 -13 63 6 92 36 177 84 248 40 57 41 70 20 155 l-13 49
-49 -55 c-96 -106 -150 -222 -165 -356 -11 -96 8 -302 27 -302 3 0 43 19 89
41 89 44 189 127 238 198 41 58 75 162 82 245 18 212 -94 485 -311 755 -69 87
-194 221 -205 221 -5 0 -39 -33 -77 -73z"/>
<path d="M602 2335 c-71 -239 -68 -477 8 -688 94 -256 335 -475 635 -577 l50
-17 3 -86 3 -87 59 0 59 0 3 86 3 86 75 28 c213 77 398 213 507 373 74 107
104 173 139 307 21 78 29 289 15 380 -15 100 -52 250 -61 250 -4 0 -11 -20
-14 -45 -4 -24 -20 -69 -35 -100 -24 -48 -27 -61 -20 -102 13 -78 10 -263 -6
-335 -31 -150 -97 -269 -210 -383 -90 -91 -193 -160 -317 -210 -117 -48 -136
-51 -210 -25 -294 102 -496 296 -578 555 -26 85 -38 277 -22 378 10 64 9 70
-16 118 -14 29 -31 77 -38 108 l-11 56 -21 -70z"/>
</g>
</svg>
