<?xml version="1.0" standalone="no"?>
<!DOCTYPE svg PUBLIC "-//W3C//DTD SVG 20010904//EN"
 "http://www.w3.org/TR/2001/REC-SVG-20010904/DTD/svg10.dtd">
<svg version="1.0" xmlns="http://www.w3.org/2000/svg"
 width="1023.000000pt" height="211.000000pt" viewBox="0 0 1023.000000 211.000000"
 preserveAspectRatio="xMidYMid meet">

<g transform="translate(0.000000,211.000000) scale(0.100000,-0.100000)"
fill="#000000" stroke="none">
<path d="M5705 1852 c-3 -3 -5 -50 -5 -105 l0 -99 -30 26 c-55 45 -142 47
-206 4 -102 -69 -99 -255 5 -325 61 -41 191 -26 220 24 9 15 10 12 11 -14 0
-29 3 -33 28 -33 l29 0 -1 259 -1 260 -22 4 c-13 2 -25 2 -28 -1z m-64 -209
c60 -36 80 -149 36 -214 -39 -58 -130 -71 -188 -26 -46 35 -63 131 -34 188 33
62 124 88 186 52z"/>
<path d="M6623 1853 c-22 -4 -23 -9 -23 -104 l0 -100 -35 27 c-70 53 -188 38
-240 -31 -35 -45 -51 -127 -36 -182 22 -81 88 -135 167 -135 57 0 84 9 117 40
l27 26 0 -32 c0 -27 4 -32 25 -32 l25 0 0 265 c0 146 -1 264 -2 264 -2 -1 -13
-4 -25 -6z m-72 -219 c66 -58 63 -193 -5 -238 -53 -34 -140 -24 -176 21 -60
76 -36 198 45 234 32 14 113 4 136 -17z"/>
<path d="M4528 1773 l-3 -68 -37 -3 c-29 -2 -38 -8 -38 -22 0 -14 9 -20 38
-22 l37 -3 3 -162 2 -163 25 0 25 0 0 165 0 165 44 0 c38 0 43 3 42 22 -1 19
-7 22 -41 23 l-40 0 -3 68 c-3 63 -4 67 -27 67 -23 0 -24 -4 -27 -67z"/>
<path d="M4730 1805 c0 -32 2 -35 30 -35 31 0 34 7 24 48 -4 15 -14 22 -30 22
-21 0 -24 -5 -24 -35z"/>
<path d="M5250 1805 c0 -32 2 -35 30 -35 28 0 30 3 30 35 0 32 -2 35 -30 35
-28 0 -30 -3 -30 -35z"/>
<path d="M3736 1816 c-2 -6 -48 -112 -101 -236 -53 -124 -99 -231 -102 -237
-3 -9 5 -13 25 -13 27 0 32 5 58 68 16 37 33 70 39 75 16 11 235 5 243 -7 4
-6 19 -38 33 -71 21 -50 30 -61 52 -63 15 -2 27 1 27 6 0 6 -45 115 -99 244
l-100 233 -35 6 c-21 3 -37 1 -40 -5z m88 -165 c25 -60 46 -113 46 -119 0 -10
-174 -17 -189 -7 -5 3 7 42 26 88 19 45 41 97 48 115 8 17 16 32 19 32 2 0 25
-49 50 -109z"/>
<path d="M4154 1691 c-107 -49 -136 -212 -54 -305 41 -46 78 -59 153 -54 68 4
105 24 139 76 24 36 23 42 -7 42 -16 0 -37 -13 -58 -36 -27 -30 -41 -37 -73
-37 -90 -3 -148 55 -147 145 1 87 61 142 148 135 40 -4 54 -10 75 -36 18 -21
35 -31 53 -31 27 0 27 1 13 28 -43 82 -150 115 -242 73z"/>
<path d="M4743 1703 c-10 -4 -13 -50 -13 -189 l0 -184 25 0 25 0 0 188 c0 193
-1 197 -37 185z"/>
<path d="M4859 1703 c-14 -3 -6 -30 48 -165 35 -89 66 -172 69 -185 6 -20 12
-24 41 -21 l35 3 70 179 c38 98 68 179 66 181 -2 2 -14 5 -27 7 -22 3 -27 -7
-79 -149 -31 -84 -59 -153 -63 -153 -4 0 -31 66 -61 146 -52 142 -66 164 -99
157z"/>
<path d="M5255 1702 c-3 -3 -5 -88 -5 -189 l0 -183 30 0 30 0 -2 187 c-3 185
-3 186 -26 188 -12 1 -24 -1 -27 -3z"/>
<path d="M5930 1687 c-117 -62 -123 -259 -11 -334 49 -33 144 -32 195 2 l36
24 0 -25 c0 -22 4 -25 28 -22 l27 3 0 185 0 184 -25 0 c-20 0 -26 -6 -30 -28
-5 -27 -6 -28 -20 -11 -40 48 -132 58 -200 22z m183 -65 c56 -57 48 -185 -16
-226 -60 -40 -161 -14 -191 49 -20 42 -20 107 -1 146 39 75 147 91 208 31z"/>
<path d="M10026 1113 c-4 -9 0 -23 8 -31 13 -13 17 -13 31 2 9 9 14 23 11 31
-7 20 -42 19 -50 -2z"/>
<path d="M9793 1029 c-34 -12 23 -14 232 -9 l210 5 -213 5 c-117 3 -220 2
-229 -1z"/>
<path d="M7982 1023 c329 -2 867 -2 1195 0 329 1 60 2 -597 2 -657 0 -926 -1
-598 -2z"/>
<path d="M9780 885 c-19 -22 -8 -50 21 -53 32 -4 46 30 22 53 -18 19 -27 19
-43 0z"/>
<path d="M9403 794 c-3 -11 -11 -22 -16 -25 -5 -4 -7 -19 -3 -33 9 -35 47 -44
85 -20 28 18 29 20 16 52 -8 17 -21 32 -29 32 -8 0 -21 3 -30 6 -10 4 -18 -1
-23 -12z"/>
<path d="M5145 780 c-11 -4 -28 -22 -38 -39 l-18 -31 23 0 c14 0 38 14 57 34
29 29 30 34 14 38 -10 3 -28 2 -38 -2z"/>
<path d="M6060 755 c0 -31 3 -35 25 -35 22 0 25 4 25 35 0 31 -3 35 -25 35
-22 0 -25 -4 -25 -35z"/>
<path d="M3270 525 l0 -245 180 0 180 0 0 25 0 24 -152 3 -153 3 -3 83 -3 82
141 0 140 0 0 25 0 25 -124 0 c-68 0 -131 3 -140 6 -13 5 -16 22 -16 85 l0 79
155 0 155 0 0 25 0 25 -180 0 -180 0 0 -245z"/>
<path d="M9650 690 c0 -15 5 -20 18 -18 9 2 17 10 17 18 0 8 -8 16 -17 18 -13
2 -18 -3 -18 -18z"/>
<path d="M3805 646 c-37 -17 -80 -62 -94 -99 -18 -46 -13 -133 9 -177 31 -60
82 -90 155 -90 73 0 121 22 152 69 29 43 29 51 -1 51 -16 0 -32 -11 -46 -30
-25 -35 -75 -51 -125 -40 -65 15 -105 69 -105 142 0 82 58 138 141 138 34 0
47 -6 76 -35 21 -21 45 -35 59 -35 30 0 30 5 2 47 -43 63 -150 92 -223 59z"/>
<path d="M4215 646 c-38 -17 -80 -62 -95 -101 -28 -73 -5 -180 49 -229 50 -45
174 -49 231 -7 43 31 70 90 70 153 0 68 -12 103 -48 142 -51 54 -140 72 -207
42z m156 -62 c67 -60 62 -193 -8 -240 -35 -22 -111 -22 -145 0 -82 53 -74 208
12 254 34 18 115 10 141 -14z"/>
<path d="M4563 653 c-10 -4 -13 -51 -13 -189 l0 -184 30 0 30 0 0 131 0 131
34 34 c46 46 101 48 148 5 l33 -29 3 -136 4 -136 25 0 24 0 -3 143 c-3 132 -5
144 -27 174 -56 75 -167 83 -222 17 -13 -16 -14 -15 -19 11 -5 27 -21 37 -47
28z"/>
<path d="M5065 646 c-37 -16 -92 -77 -101 -111 -3 -14 -4 -54 -2 -89 7 -114
75 -172 193 -164 73 4 116 31 145 88 22 44 27 131 9 177 -34 90 -154 139 -244
99z m135 -49 c86 -43 94 -200 13 -253 -34 -21 -112 -21 -146 0 -81 53 -73 210
13 253 32 16 88 16 120 0z"/>
<path d="M5413 653 c-10 -4 -13 -50 -13 -189 l0 -184 30 0 30 0 0 136 0 136
29 29 c23 22 39 29 68 29 77 -1 92 -32 94 -199 l1 -131 29 0 29 0 0 136 0 136
29 29 c32 31 71 38 114 18 45 -20 52 -45 53 -184 l1 -130 26 -3 27 -3 0 128
c0 148 -16 199 -72 233 -57 35 -113 25 -171 -28 l-27 -26 -16 22 c-38 55 -119
67 -178 27 -33 -22 -36 -23 -36 -6 0 19 -25 31 -47 24z"/>
<path d="M6060 471 l0 -191 25 0 25 0 0 185 c0 106 -4 185 -9 185 -5 0 -16 3
-25 6 -14 5 -16 -15 -16 -185z"/>
<path d="M6290 638 c-124 -63 -134 -245 -19 -331 80 -58 222 -26 263 60 16 33
16 33 -10 33 -16 0 -35 -11 -50 -30 -63 -75 -181 -52 -218 42 -57 142 113 266
215 157 20 -22 36 -29 54 -27 l27 3 -24 35 c-29 43 -99 80 -153 80 -22 0 -61
-10 -85 -22z"/>
<path d="M6705 641 c-49 -22 -73 -48 -91 -98 -32 -92 1 -200 77 -242 54 -31
156 -27 192 7 30 28 37 28 37 -3 0 -20 5 -25 25 -25 l25 0 0 185 c0 102 -3
185 -7 186 -5 0 -16 2 -25 4 -14 2 -18 -4 -18 -26 0 -16 -4 -29 -10 -29 -5 0
-10 4 -10 8 0 17 -79 52 -116 52 -22 0 -57 -9 -79 -19z m153 -51 c61 -37 78
-120 41 -196 -41 -85 -157 -95 -215 -18 -34 44 -38 122 -9 171 36 61 121 81
183 43z"/>
<path d="M9366 593 c-7 -16 8 -33 30 -33 14 0 23 20 17 38 -7 18 -40 15 -47
-5z"/>
</g>
</svg>
