<?xml version="1.0" standalone="no"?>
<!DOCTYPE svg PUBLIC "-//W3C//DTD SVG 20010904//EN"
 "http://www.w3.org/TR/2001/REC-SVG-20010904/DTD/svg10.dtd">
<svg version="1.0" xmlns="http://www.w3.org/2000/svg"
 width="656.000000pt" height="706.000000pt" viewBox="0 0 656.000000 706.000000"
 preserveAspectRatio="xMidYMid meet">

<g transform="translate(0.000000,706.000000) scale(0.100000,-0.100000)"
fill="#000000" stroke="none">
<path d="M3190 5895 c-7 -8 -9 -211 -8 -586 l3 -574 585 0 585 0 3 80 c2 44 0
90 -3 102 l-5 23 -465 0 -464 0 -15 22 c-14 20 -16 82 -16 479 l0 457 -27 6
c-48 10 -162 4 -173 -9z"/>
<path d="M2862 5831 c-86 -38 -89 -41 -74 -96 16 -62 17 -59 -30 -94 -52 -39
-66 -39 -108 -1 -18 17 -37 30 -41 30 -25 0 -148 -127 -149 -154 0 -10 13 -34
30 -52 32 -38 32 -47 -9 -107 -23 -33 -30 -37 -56 -32 -101 20 -91 23 -125
-46 -17 -35 -32 -82 -33 -104 -2 -36 1 -41 41 -63 l44 -24 -7 -52 c-9 -67 -27
-86 -82 -86 -38 0 -45 -4 -53 -26 -6 -14 -10 -54 -10 -89 0 -35 4 -75 10 -89
8 -23 15 -26 54 -26 47 0 76 -18 76 -48 0 -9 3 -34 6 -54 6 -36 5 -38 -41 -60
-46 -23 -47 -23 -41 -63 6 -49 61 -165 78 -166 25 -2 53 3 62 12 20 18 45 8
75 -30 38 -47 39 -80 6 -111 -14 -13 -25 -33 -25 -45 0 -26 117 -145 143 -145
10 0 32 11 49 25 38 32 56 32 108 -6 37 -27 41 -34 35 -57 -23 -92 -24 -89 51
-123 38 -18 85 -34 105 -36 33 -5 37 -3 54 33 23 51 31 55 85 48 54 -7 80 -33
80 -80 0 -47 29 -64 112 -64 98 0 114 9 121 66 6 56 20 69 83 79 47 7 74 -5
74 -31 0 -7 10 -24 23 -39 l22 -25 50 19 c139 53 154 67 131 122 -18 43 -11
63 35 93 48 32 69 33 99 1 38 -41 65 -33 136 40 35 36 64 71 64 78 0 7 -13 26
-30 42 -38 36 -38 55 0 111 34 49 41 51 95 29 46 -20 56 -13 95 69 46 100 44
125 -14 154 -35 16 -45 27 -48 49 l-3 28 -113 3 -113 3 -15 -38 c-51 -128 -90
-190 -179 -278 -72 -73 -107 -99 -175 -133 -126 -63 -192 -77 -345 -76 -115 0
-139 3 -210 28 -190 65 -337 191 -422 361 -116 232 -106 488 28 711 59 98 175
207 274 257 70 35 121 57 134 57 8 0 11 35 9 117 l-3 117 -31 8 c-23 6 -36 18
-49 48 -16 35 -22 40 -49 39 -17 0 -59 -13 -94 -28z"/>
<path d="M2869 5263 c-75 -72 -82 -94 -40 -137 37 -38 39 -62 10 -119 -27 -52
-34 -57 -86 -57 -55 0 -63 -16 -63 -122 0 -93 8 -108 55 -108 58 0 73 -10 97
-63 12 -29 24 -55 26 -59 2 -4 -13 -24 -32 -46 -20 -22 -36 -46 -36 -55 0 -23
108 -136 136 -143 18 -5 33 2 59 25 20 17 40 31 45 31 5 0 34 -9 64 -20 56
-22 65 -35 66 -95 1 -52 12 -59 97 -63 43 -2 90 1 106 7 24 9 27 16 27 55 0
53 19 77 78 100 55 21 56 21 95 -14 19 -16 44 -30 55 -30 23 0 137 109 144
138 4 13 -6 31 -27 54 -19 19 -35 48 -37 64 l-3 29 -133 3 c-125 2 -137 1
-187 -23 -63 -29 -107 -31 -178 -8 -68 22 -129 83 -152 153 -21 63 -16 120 14
181 20 40 22 57 19 179 l-3 135 -30 3 c-16 2 -44 17 -63 33 -18 16 -40 29 -48
29 -9 0 -42 -26 -75 -57z"/>
<path d="M1405 2778 c-3 -7 -4 -180 -3 -383 l3 -370 35 0 35 0 3 308 c1 169 6
307 10 307 12 0 21 -22 82 -185 28 -77 59 -158 67 -180 8 -22 19 -49 23 -60 4
-11 19 -49 33 -85 14 -36 28 -73 31 -83 7 -22 29 -31 59 -23 17 4 27 20 42 63
10 32 22 65 26 73 4 8 31 78 59 155 28 77 55 149 60 160 4 11 14 36 21 55 6
19 22 55 33 80 l21 45 5 -315 5 -315 35 0 35 0 0 380 0 380 -57 3 c-57 3 -58
2 -73 -30 -22 -51 -202 -539 -209 -570 -8 -36 -33 -27 -41 15 -3 18 -10 41
-14 52 -5 11 -16 40 -26 65 -10 25 -21 54 -25 65 -5 11 -25 65 -45 120 -109
297 -99 279 -168 283 -40 2 -59 -1 -62 -10z"/>
<path d="M2568 2770 c-130 -41 -203 -118 -234 -250 -35 -146 2 -306 90 -395
89 -88 238 -125 369 -91 118 31 191 91 240 196 28 60 30 74 31 176 0 62 -4
122 -10 135 -6 13 -18 40 -27 59 -65 148 -278 227 -459 170z m197 -71 c65 -17
101 -37 134 -74 53 -61 64 -98 65 -220 0 -95 -3 -116 -23 -157 -70 -143 -260
-191 -403 -101 -114 71 -153 274 -83 429 21 46 88 101 137 114 24 6 48 13 53
15 21 7 81 5 120 -6z"/>
<path d="M3477 2775 c-109 -30 -176 -85 -223 -181 -26 -55 -28 -68 -29 -179 0
-147 16 -202 82 -275 113 -126 302 -155 458 -72 49 26 73 47 108 93 35 47 34
65 -5 78 -32 11 -34 10 -76 -38 -47 -55 -76 -72 -151 -92 -40 -10 -60 -10
-107 0 -152 34 -221 139 -212 324 4 75 9 102 31 144 52 101 172 150 298 122
55 -12 71 -21 117 -66 48 -48 55 -51 80 -42 15 5 33 12 40 14 18 6 1 39 -47
88 -42 44 -73 61 -154 82 -69 18 -145 18 -210 0z"/>
<path d="M4293 2770 c-160 -44 -245 -167 -246 -355 -2 -201 91 -335 261 -379
78 -20 125 -20 195 -2 70 18 109 39 158 83 74 67 81 113 19 126 -21 4 -31 -3
-62 -43 -36 -47 -65 -66 -137 -89 -60 -19 -113 -13 -198 25 -101 45 -168 227
-132 359 35 126 87 180 202 205 97 22 200 -10 259 -80 32 -39 34 -40 71 -28
46 14 47 31 6 81 -82 100 -244 140 -396 97z"/>
<path d="M4932 2408 l3 -383 40 0 40 0 0 380 0 380 -43 3 -42 3 2 -383z"/>
<path d="M2545 1801 c-72 -18 -105 -63 -105 -141 0 -40 -11 -50 -56 -50 -22 0
-25 -4 -22 -32 3 -29 7 -34 38 -38 l35 -5 5 -260 5 -260 40 0 40 0 5 260 c3
143 7 261 8 263 1 1 21 2 45 2 53 0 70 11 65 41 -2 19 -10 25 -38 27 -68 5
-80 11 -80 38 0 43 30 84 61 84 53 0 73 22 51 57 -10 17 -59 24 -97 14z"/>
<path d="M1179 1765 c-69 -19 -106 -42 -134 -82 -20 -31 -25 -50 -25 -103 0
-58 3 -69 31 -103 34 -42 82 -67 174 -92 33 -9 74 -21 91 -26 17 -5 41 -9 55
-9 13 0 47 -14 76 -30 43 -25 53 -36 59 -64 13 -71 -25 -135 -91 -151 -146
-36 -281 -1 -332 85 -15 27 -22 30 -48 24 -41 -8 -49 -18 -41 -49 34 -134 316
-198 496 -112 81 38 110 84 110 173 0 130 -47 169 -265 222 -199 49 -233 72
-222 154 7 50 27 71 91 92 62 20 113 20 183 0 43 -13 60 -24 81 -54 15 -22 33
-42 40 -45 19 -7 66 17 70 36 4 23 -51 92 -89 110 -82 39 -217 50 -310 24z"/>
<path d="M2784 1678 c-19 -58 -28 -68 -62 -68 -20 0 -23 -4 -20 -32 3 -28 8
-34 33 -38 l30 -5 5 -232 c4 -207 7 -233 24 -252 26 -29 79 -44 126 -36 32 5
41 12 46 32 8 32 -2 41 -51 45 -37 3 -41 6 -53 42 -9 27 -12 94 -10 220 l3
181 51 3 c43 2 53 7 57 23 9 36 -3 49 -43 49 -64 0 -70 6 -70 66 0 50 -2 54
-24 54 -21 0 -27 -8 -42 -52z"/>
<path d="M1900 1597 c-19 -6 -56 -32 -81 -57 -37 -37 -48 -57 -62 -112 -20
-81 -21 -143 -2 -222 25 -104 76 -156 177 -183 60 -16 69 -16 133 0 37 9 82
28 99 41 123 93 121 423 -2 504 -63 41 -181 54 -262 29z m191 -78 c53 -38 64
-71 64 -204 0 -133 -11 -166 -64 -204 -44 -32 -149 -30 -189 4 -47 40 -64 100
-60 213 6 158 47 212 161 212 44 0 67 -5 88 -21z"/>
<path d="M3020 1603 c0 -8 31 -124 76 -288 14 -49 36 -133 50 -185 14 -52 30
-101 36 -107 14 -17 83 -16 97 1 6 7 29 87 51 177 22 90 47 187 55 215 8 28
15 58 15 67 0 29 18 19 28 -15 6 -18 22 -85 37 -148 51 -224 67 -285 77 -297
12 -14 76 -17 95 -5 7 5 22 42 32 83 25 95 46 170 66 239 9 30 23 80 31 110 8
30 21 76 29 102 7 25 11 49 8 52 -4 3 -23 6 -44 6 -27 0 -39 -5 -43 -17 -2
-10 -28 -112 -56 -228 -28 -115 -53 -216 -56 -224 -11 -34 -32 22 -85 237
l-56 227 -43 3 c-23 2 -47 -1 -51 -5 -8 -8 -50 -157 -69 -243 -10 -43 -50
-200 -56 -219 -9 -26 -27 5 -44 76 -9 37 -34 141 -56 230 l-39 163 -42 0 c-24
0 -43 -3 -43 -7z"/>
<path d="M4050 1596 c-49 -16 -75 -36 -100 -79 -29 -49 -21 -67 28 -67 35 0
41 4 52 30 17 41 57 60 126 60 50 0 59 -3 90 -34 29 -29 34 -41 34 -79 0 -54
-5 -57 -108 -57 -102 -1 -189 -25 -228 -65 -46 -46 -57 -140 -24 -206 55 -106
214 -115 316 -18 l40 39 18 -40 c19 -44 58 -70 105 -70 34 0 65 26 57 47 -3 8
-6 17 -6 19 0 2 -10 4 -23 4 -43 0 -47 15 -47 177 0 83 -5 175 -11 203 -21 99
-97 151 -217 149 -37 -1 -83 -6 -102 -13z m208 -292 c42 -12 23 -115 -32 -169
-48 -48 -162 -61 -203 -23 -18 17 -23 32 -23 72 1 84 40 114 155 119 39 2 72
4 75 5 3 1 15 -1 28 -4z"/>
<path d="M4577 1604 c-4 -4 -7 -137 -7 -295 l0 -289 25 -6 c14 -3 36 -3 50 0
l25 6 0 187 c0 111 5 201 11 224 17 54 50 82 107 89 l47 5 3 43 3 42 -36 0
c-20 0 -46 -5 -58 -11 -26 -15 -56 -50 -57 -66 0 -7 -4 -13 -10 -13 -9 0 -15
18 -22 65 -2 15 -12 21 -38 23 -20 2 -39 0 -43 -4z"/>
<path d="M5103 1596 c-117 -43 -175 -170 -153 -339 14 -116 52 -177 131 -214
125 -59 287 -23 338 76 14 26 8 37 -30 46 -21 5 -31 1 -51 -22 -37 -42 -62
-53 -127 -53 -76 0 -101 12 -133 61 -26 40 -45 120 -33 139 4 6 81 10 199 10
149 0 196 3 205 13 13 17 -7 136 -32 184 -21 40 -72 81 -123 99 -47 16 -146
16 -191 0z m199 -88 c42 -41 69 -115 47 -129 -8 -5 -77 -8 -154 -6 l-140 2 -3
33 c-4 39 28 96 66 117 15 8 55 14 89 15 56 0 65 -3 95 -32z"/>
<path d="M3806 655 c-6 -17 3 -25 26 -25 10 0 18 6 18 14 0 18 -37 28 -44 11z"/>
<path d="M2380 641 c0 -16 28 -20 40 -5 10 12 8 14 -14 14 -14 0 -26 -4 -26
-9z"/>
<path d="M2910 640 c0 -5 11 -10 25 -10 14 0 25 5 25 10 0 6 -11 10 -25 10
-14 0 -25 -4 -25 -10z"/>
<path d="M3445 640 c3 -5 19 -10 36 -10 16 0 29 5 29 10 0 6 -16 10 -36 10
-21 0 -33 -4 -29 -10z"/>
<path d="M3630 641 c0 -16 28 -20 40 -5 10 12 8 14 -14 14 -14 0 -26 -4 -26
-9z"/>
<path d="M2612 620 c0 -14 2 -19 5 -12 2 6 2 18 0 25 -3 6 -5 1 -5 -13z"/>
<path d="M2780 544 c0 -8 5 -12 10 -9 6 4 8 11 5 16 -9 14 -15 11 -15 -7z"/>
<path d="M3260 545 c0 -13 8 -16 38 -13 20 2 37 8 37 13 0 6 -17 11 -37 13
-30 3 -38 0 -38 -13z"/>
<path d="M4020 551 c0 -6 5 -13 10 -16 6 -3 10 1 10 9 0 9 -4 16 -10 16 -5 0
-10 -4 -10 -9z"/>
<path d="M2385 530 c-8 -13 20 -24 36 -15 8 6 7 10 -2 16 -18 11 -26 11 -34
-1z"/>
<path d="M3115 530 c-3 -5 -1 -10 4 -10 6 0 11 5 11 10 0 6 -2 10 -4 10 -3 0
-8 -4 -11 -10z"/>
<path d="M3635 530 c-8 -13 20 -24 36 -15 8 6 7 10 -2 16 -18 11 -26 11 -34
-1z"/>
<path d="M2915 520 c3 -5 15 -10 26 -10 10 0 19 5 19 10 0 6 -12 10 -26 10
-14 0 -23 -4 -19 -10z"/>
<path d="M3445 520 c3 -5 15 -10 25 -10 10 0 22 5 25 10 4 6 -7 10 -25 10 -18
0 -29 -4 -25 -10z"/>
<path d="M3805 520 c3 -5 15 -10 25 -10 10 0 22 5 25 10 4 6 -7 10 -25 10 -18
0 -29 -4 -25 -10z"/>
</g>
</svg>
